<svg width="916" height="649" viewBox="0 0 916 649" fill="none" xmlns="http://www.w3.org/2000/svg">
<circle cx="83" cy="527" r="45" fill="#2F7F7A"/>
<mask id="mask0_1_39" style="mask-type:alpha" maskUnits="userSpaceOnUse" x="13" y="579" width="140" height="70">
<rect x="13" y="579" width="140" height="70" fill="#2F7F7A"/>
</mask>
<g mask="url(#mask0_1_39)">
<circle cx="83" cy="649" r="70" fill="#2F7F7A"/>
</g>
<circle cx="846" cy="527" r="45" fill="#6F6A60"/>
<mask id="mask1_1_39" style="mask-type:alpha" maskUnits="userSpaceOnUse" x="776" y="579" width="140" height="70">
<rect x="776" y="579" width="140" height="70" fill="#6F6A60"/>
</mask>
<g mask="url(#mask1_1_39)">
<circle cx="846" cy="649" r="70" fill="#6F6A60"/>
</g>
<g clip-path="url(#clip0_1_39)">
<path d="M349.833 11.2083H529.167C532.139 11.2083 534.99 12.3892 537.092 14.4912C539.194 16.5932 540.375 19.444 540.375 22.4167V67.25C540.375 70.2226 539.194 73.0735 537.092 75.1755C534.99 77.2775 532.139 78.4583 529.167 78.4583H349.833C346.861 78.4583 344.01 77.2775 341.908 75.1755C339.806 73.0735 338.625 70.2226 338.625 67.25V22.4167C338.625 19.444 339.806 16.5932 341.908 14.4912C344.01 12.3892 346.861 11.2083 349.833 11.2083ZM349.833 100.875H529.167C532.139 100.875 534.99 102.056 537.092 104.158C539.194 106.26 540.375 109.111 540.375 112.083V156.917C540.375 159.889 539.194 162.74 537.092 164.842C534.99 166.944 532.139 168.125 529.167 168.125H349.833C346.861 168.125 344.01 166.944 341.908 164.842C339.806 162.74 338.625 159.889 338.625 156.917V112.083C338.625 109.111 339.806 106.26 341.908 104.158C344.01 102.056 346.861 100.875 349.833 100.875ZM349.833 190.542H529.167C532.139 190.542 534.99 191.723 537.092 193.825C539.194 195.926 540.375 198.777 540.375 201.75V246.583C540.375 249.556 539.194 252.407 537.092 254.509C534.99 256.611 532.139 257.792 529.167 257.792H349.833C346.861 257.792 344.01 256.611 341.908 254.509C339.806 252.407 338.625 249.556 338.625 246.583V201.75C338.625 198.777 339.806 195.926 341.908 193.825C344.01 191.723 346.861 190.542 349.833 190.542ZM405.875 56.0417H417.083V33.625H405.875V56.0417ZM405.875 145.708H417.083V123.292H405.875V145.708ZM405.875 235.375H417.083V212.958H405.875V235.375ZM361.042 33.625V56.0417H383.458V33.625H361.042ZM361.042 123.292V145.708H383.458V123.292H361.042ZM361.042 212.958V235.375H383.458V212.958H361.042Z" fill="black"/>
</g>
<path d="M250.484 238.719C250.329 237.347 249.091 236.361 247.719 236.516L225.362 239.041C223.99 239.196 223.003 240.434 223.158 241.806C223.313 243.178 224.551 244.164 225.923 244.009L245.796 241.765L248.041 261.638C248.196 263.01 249.434 263.997 250.806 263.842C252.178 263.687 253.164 262.449 253.009 261.077L250.484 238.719ZM87 441L88.955 442.558L249.955 240.558L248 239L246.045 237.442L85.045 439.442L87 441Z" fill="black"/>
<path d="M141.516 482.281C141.671 483.653 142.909 484.639 144.281 484.484L166.638 481.959C168.01 481.804 168.997 480.566 168.842 479.194C168.687 477.822 167.449 476.836 166.077 476.991L146.204 479.235L143.959 459.362C143.804 457.99 142.566 457.003 141.194 457.158C139.822 457.313 138.836 458.551 138.991 459.923L141.516 482.281ZM144 482L145.955 483.558L306.955 281.558L305 280L303.045 278.442L142.045 480.442L144 482Z" fill="black"/>
<path d="M574.099 308.629C572.72 308.574 571.557 309.648 571.502 311.028L570.609 333.51C570.554 334.889 571.628 336.052 573.008 336.107C574.388 336.162 575.55 335.088 575.605 333.708L576.399 313.724L596.383 314.518C597.763 314.572 598.926 313.498 598.98 312.119C599.035 310.739 597.961 309.576 596.581 309.522L574.099 308.629ZM749.262 500.885L751.099 499.189L575.837 309.431L574 311.127L572.163 312.823L747.426 502.581L749.262 500.885Z" fill="black"/>
<path d="M798.329 453.256C799.709 453.311 800.872 452.237 800.926 450.857L801.819 428.375C801.874 426.995 800.8 425.833 799.42 425.778C798.041 425.723 796.878 426.797 796.823 428.177L796.03 448.161L776.045 447.367C774.666 447.312 773.503 448.386 773.448 449.766C773.393 451.146 774.467 452.309 775.847 452.363L798.329 453.256ZM798.428 450.758L800.265 449.062L625.003 259.304L623.166 261L621.33 262.696L796.592 452.454L798.428 450.758Z" fill="black"/>
<path d="M22.344 310.776C22.248 310.888 22.136 311.024 22.008 311.184C21.896 311.344 21.792 311.496 21.696 311.64C21.392 312.184 20.936 312.856 20.328 313.656C19.736 314.44 19.048 315.248 18.264 316.08C17.48 316.896 16.632 317.624 15.72 318.264L14.136 316.992C14.696 316.672 15.24 316.288 15.768 315.84C16.312 315.376 16.816 314.896 17.28 314.4C17.76 313.888 18.176 313.392 18.528 312.912C18.896 312.416 19.184 311.984 19.392 311.616C19.136 311.616 18.72 311.616 18.144 311.616C17.584 311.616 16.912 311.616 16.128 311.616C15.36 311.616 14.536 311.616 13.656 311.616C12.776 311.616 11.904 311.616 11.04 311.616C10.176 311.616 9.368 311.616 8.616 311.616C7.864 311.616 7.232 311.616 6.72 311.616C6.208 311.616 5.872 311.616 5.712 311.616C5.264 311.616 4.816 311.632 4.368 311.664C3.92 311.68 3.456 311.712 2.976 311.76V309.576C3.392 309.64 3.84 309.696 4.32 309.744C4.8 309.776 5.264 309.792 5.712 309.792C5.872 309.792 6.216 309.792 6.744 309.792C7.272 309.792 7.912 309.792 8.664 309.792C9.432 309.792 10.264 309.792 11.16 309.792C12.056 309.792 12.944 309.792 13.824 309.792C14.72 309.792 15.56 309.792 16.344 309.792C17.128 309.792 17.792 309.792 18.336 309.792C18.896 309.792 19.28 309.792 19.488 309.792C19.648 309.792 19.832 309.792 20.04 309.792C20.264 309.776 20.48 309.752 20.688 309.72C20.896 309.688 21.056 309.664 21.168 309.648L22.344 310.776ZM12.768 313.944C12.768 315.24 12.728 316.456 12.648 317.592C12.568 318.728 12.408 319.792 12.168 320.784C11.928 321.776 11.56 322.696 11.064 323.544C10.584 324.376 9.936 325.16 9.12 325.896C8.304 326.616 7.288 327.28 6.072 327.888L4.296 326.448C4.632 326.336 4.992 326.192 5.376 326.016C5.76 325.824 6.12 325.608 6.456 325.368C7.4 324.808 8.152 324.176 8.712 323.472C9.272 322.768 9.688 322.008 9.96 321.192C10.248 320.36 10.44 319.488 10.536 318.576C10.648 317.648 10.704 316.688 10.704 315.696C10.704 315.392 10.696 315.104 10.68 314.832C10.68 314.56 10.656 314.264 10.608 313.944H12.768ZM35.592 313.176C35.704 313.416 35.848 313.776 36.024 314.256C36.2 314.72 36.384 315.216 36.576 315.744C36.784 316.272 36.968 316.776 37.128 317.256C37.288 317.72 37.408 318.088 37.488 318.36L35.712 318.984C35.648 318.712 35.536 318.344 35.376 317.88C35.232 317.416 35.064 316.92 34.872 316.392C34.68 315.848 34.488 315.344 34.296 314.88C34.104 314.416 33.952 314.048 33.84 313.776L35.592 313.176ZM44.28 314.52C44.2 314.76 44.128 314.984 44.064 315.192C44.016 315.384 43.968 315.56 43.92 315.72C43.6 317.032 43.168 318.32 42.624 319.584C42.08 320.832 41.376 322 40.512 323.088C39.408 324.496 38.16 325.672 36.768 326.616C35.392 327.56 34.032 328.288 32.688 328.8L31.104 327.192C32.032 326.904 32.968 326.52 33.912 326.04C34.872 325.56 35.776 324.984 36.624 324.312C37.488 323.64 38.248 322.896 38.904 322.08C39.48 321.376 39.992 320.584 40.44 319.704C40.904 318.824 41.288 317.888 41.592 316.896C41.896 315.904 42.104 314.896 42.216 313.872L44.28 314.52ZM30.024 314.376C30.152 314.648 30.312 315.016 30.504 315.48C30.696 315.944 30.896 316.456 31.104 317.016C31.328 317.56 31.536 318.088 31.728 318.6C31.936 319.096 32.096 319.496 32.208 319.8L30.384 320.472C30.288 320.168 30.144 319.76 29.952 319.248C29.776 318.72 29.576 318.176 29.352 317.616C29.128 317.056 28.912 316.544 28.704 316.08C28.512 315.616 28.36 315.28 28.248 315.072L30.024 314.376ZM67.32 309.768C67.32 310.2 67.472 310.576 67.776 310.896C68.096 311.2 68.472 311.352 68.904 311.352C69.352 311.352 69.728 311.2 70.032 310.896C70.352 310.576 70.512 310.2 70.512 309.768C70.512 309.32 70.352 308.944 70.032 308.64C69.728 308.32 69.352 308.16 68.904 308.16C68.472 308.16 68.096 308.32 67.776 308.64C67.472 308.944 67.32 309.32 67.32 309.768ZM66.216 309.768C66.216 309.272 66.336 308.824 66.576 308.424C66.832 308.008 67.16 307.68 67.56 307.44C67.96 307.184 68.408 307.056 68.904 307.056C69.4 307.056 69.848 307.184 70.248 307.44C70.664 307.68 70.992 308.008 71.232 308.424C71.488 308.824 71.616 309.272 71.616 309.768C71.616 310.264 71.488 310.712 71.232 311.112C70.992 311.512 70.664 311.84 70.248 312.096C69.848 312.336 69.4 312.456 68.904 312.456C68.408 312.456 67.96 312.336 67.56 312.096C67.16 311.84 66.832 311.512 66.576 311.112C66.336 310.712 66.216 310.264 66.216 309.768ZM68.304 311.376C68.224 311.536 68.152 311.72 68.088 311.928C68.04 312.12 67.992 312.336 67.944 312.576C67.816 313.2 67.648 313.896 67.44 314.664C67.232 315.432 66.976 316.224 66.672 317.04C66.384 317.84 66.048 318.616 65.664 319.368C65.28 320.12 64.848 320.808 64.368 321.432C63.632 322.36 62.816 323.224 61.92 324.024C61.024 324.824 60 325.544 58.848 326.184C57.696 326.824 56.384 327.376 54.912 327.84L53.28 326.04C54.848 325.656 56.2 325.176 57.336 324.6C58.488 324.024 59.496 323.376 60.36 322.656C61.224 321.92 61.984 321.128 62.64 320.28C63.216 319.544 63.712 318.72 64.128 317.808C64.56 316.88 64.92 315.952 65.208 315.024C65.496 314.08 65.688 313.224 65.784 312.456C65.56 312.456 65.136 312.456 64.512 312.456C63.888 312.456 63.152 312.456 62.304 312.456C61.456 312.456 60.568 312.456 59.64 312.456C58.728 312.456 57.848 312.456 57 312.456C56.152 312.456 55.416 312.456 54.792 312.456C54.168 312.456 53.744 312.456 53.52 312.456C53.04 312.456 52.6 312.464 52.2 312.48C51.8 312.496 51.44 312.512 51.12 312.528V310.392C51.344 310.424 51.592 310.456 51.864 310.488C52.136 310.504 52.416 310.52 52.704 310.536C52.992 310.552 53.264 310.56 53.52 310.56C53.712 310.56 54.056 310.56 54.552 310.56C55.048 310.56 55.632 310.56 56.304 310.56C56.992 310.56 57.72 310.56 58.488 310.56C59.272 310.56 60.04 310.56 60.792 310.56C61.56 310.56 62.272 310.56 62.928 310.56C63.6 310.56 64.168 310.56 64.632 310.56C65.096 310.56 65.408 310.56 65.568 310.56C65.744 310.56 65.944 310.552 66.168 310.536C66.392 310.52 66.616 310.488 66.84 310.44L68.304 311.376ZM75.504 310.56C75.984 310.576 76.392 310.592 76.728 310.608C77.064 310.608 77.368 310.608 77.64 310.608C77.832 310.608 78.184 310.608 78.696 310.608C79.208 310.608 79.824 310.608 80.544 310.608C81.28 310.608 82.064 310.608 82.896 310.608C83.728 310.608 84.552 310.608 85.368 310.608C86.2 310.608 86.976 310.608 87.696 310.608C88.416 310.608 89.024 310.608 89.52 310.608C90.016 310.608 90.352 310.608 90.528 310.608C90.784 310.608 91.104 310.608 91.488 310.608C91.888 310.592 92.272 310.576 92.64 310.56C92.624 310.848 92.608 311.16 92.592 311.496C92.592 311.816 92.592 312.128 92.592 312.432C92.592 312.592 92.592 312.912 92.592 313.392C92.592 313.856 92.592 314.424 92.592 315.096C92.592 315.768 92.592 316.496 92.592 317.28C92.592 318.048 92.592 318.816 92.592 319.584C92.592 320.352 92.592 321.064 92.592 321.72C92.592 322.376 92.592 322.936 92.592 323.4C92.592 323.848 92.592 324.136 92.592 324.264C92.592 324.44 92.592 324.68 92.592 324.984C92.592 325.288 92.592 325.592 92.592 325.896C92.608 326.2 92.616 326.472 92.616 326.712C92.632 326.936 92.64 327.088 92.64 327.168H90.576C90.576 327.072 90.576 326.88 90.576 326.592C90.592 326.288 90.6 325.952 90.6 325.584C90.616 325.2 90.624 324.84 90.624 324.504C90.624 324.392 90.624 324.088 90.624 323.592C90.624 323.096 90.624 322.488 90.624 321.768C90.624 321.032 90.624 320.248 90.624 319.416C90.624 318.568 90.624 317.744 90.624 316.944C90.624 316.128 90.624 315.384 90.624 314.712C90.624 314.04 90.624 313.504 90.624 313.104C90.624 312.704 90.624 312.504 90.624 312.504H77.496C77.496 312.504 77.496 312.704 77.496 313.104C77.496 313.488 77.496 314.016 77.496 314.688C77.496 315.36 77.496 316.104 77.496 316.92C77.496 317.72 77.496 318.536 77.496 319.368C77.496 320.2 77.496 320.984 77.496 321.72C77.496 322.44 77.496 323.048 77.496 323.544C77.496 324.04 77.496 324.36 77.496 324.504C77.496 324.712 77.496 324.952 77.496 325.224C77.496 325.496 77.496 325.768 77.496 326.04C77.512 326.296 77.52 326.528 77.52 326.736C77.536 326.944 77.544 327.088 77.544 327.168H75.48C75.48 327.088 75.48 326.936 75.48 326.712C75.496 326.472 75.504 326.2 75.504 325.896C75.52 325.592 75.528 325.296 75.528 325.008C75.528 324.704 75.528 324.448 75.528 324.24C75.528 324.112 75.528 323.816 75.528 323.352C75.528 322.888 75.528 322.32 75.528 321.648C75.528 320.976 75.528 320.256 75.528 319.488C75.528 318.704 75.528 317.928 75.528 317.16C75.528 316.376 75.528 315.656 75.528 315C75.528 314.328 75.528 313.768 75.528 313.32C75.528 312.856 75.528 312.56 75.528 312.432C75.528 312.144 75.528 311.832 75.528 311.496C75.528 311.16 75.52 310.848 75.504 310.56ZM91.392 323.904V325.776H76.56V323.904H91.392ZM98.448 316.608C98.688 316.624 98.984 316.648 99.336 316.68C99.688 316.696 100.072 316.712 100.488 316.728C100.92 316.728 101.352 316.728 101.784 316.728C102.04 316.728 102.432 316.728 102.96 316.728C103.504 316.728 104.136 316.728 104.856 316.728C105.576 316.728 106.336 316.728 107.136 316.728C107.952 316.728 108.76 316.728 109.56 316.728C110.376 316.728 111.144 316.728 111.864 316.728C112.6 316.728 113.232 316.728 113.76 316.728C114.288 316.728 114.68 316.728 114.936 316.728C115.544 316.728 116.064 316.712 116.496 316.68C116.928 316.648 117.272 316.624 117.528 316.608V318.96C117.288 318.944 116.928 318.92 116.448 318.888C115.984 318.856 115.488 318.84 114.96 318.84C114.704 318.84 114.304 318.84 113.76 318.84C113.216 318.84 112.584 318.84 111.864 318.84C111.16 318.84 110.4 318.84 109.584 318.84C108.768 318.84 107.952 318.84 107.136 318.84C106.336 318.84 105.576 318.84 104.856 318.84C104.152 318.84 103.528 318.84 102.984 318.84C102.44 318.84 102.04 318.84 101.784 318.84C101.128 318.84 100.504 318.856 99.912 318.888C99.32 318.904 98.832 318.928 98.448 318.96V316.608ZM135.744 309.72C135.952 310.008 136.192 310.368 136.464 310.8C136.736 311.216 137 311.648 137.256 312.096C137.528 312.544 137.752 312.96 137.928 313.344L136.56 313.968C136.368 313.552 136.152 313.136 135.912 312.72C135.688 312.288 135.448 311.872 135.192 311.472C134.952 311.056 134.696 310.672 134.424 310.32L135.744 309.72ZM138.648 308.52C138.856 308.792 139.096 309.136 139.368 309.552C139.656 309.968 139.936 310.4 140.208 310.848C140.48 311.296 140.712 311.704 140.904 312.072L139.56 312.744C139.352 312.328 139.128 311.912 138.888 311.496C138.648 311.08 138.392 310.672 138.12 310.272C137.864 309.872 137.6 309.496 137.328 309.144L138.648 308.52ZM127.32 325.2C127.32 324.976 127.32 324.528 127.32 323.856C127.32 323.184 127.32 322.384 127.32 321.456C127.32 320.512 127.32 319.52 127.32 318.48C127.32 317.44 127.32 316.432 127.32 315.456C127.32 314.48 127.32 313.616 127.32 312.864C127.32 312.112 127.32 311.568 127.32 311.232C127.32 310.896 127.304 310.488 127.272 310.008C127.256 309.528 127.208 309.104 127.128 308.736H129.504C129.456 309.104 129.416 309.528 129.384 310.008C129.352 310.472 129.336 310.88 129.336 311.232C129.336 311.856 129.336 312.608 129.336 313.488C129.336 314.352 129.336 315.28 129.336 316.272C129.336 317.248 129.336 318.224 129.336 319.2C129.336 320.16 129.336 321.064 129.336 321.912C129.336 322.744 129.336 323.456 129.336 324.048C129.336 324.624 129.336 325.008 129.336 325.2C129.336 325.44 129.336 325.736 129.336 326.088C129.352 326.44 129.376 326.784 129.408 327.12C129.44 327.472 129.464 327.776 129.48 328.032H127.176C127.224 327.648 127.256 327.192 127.272 326.664C127.304 326.136 127.32 325.648 127.32 325.2ZM128.904 315.024C129.688 315.264 130.56 315.552 131.52 315.888C132.48 316.208 133.448 316.552 134.424 316.92C135.416 317.288 136.352 317.664 137.232 318.048C138.128 318.416 138.912 318.768 139.584 319.104L138.744 321.144C138.056 320.776 137.28 320.4 136.416 320.016C135.568 319.632 134.688 319.256 133.776 318.888C132.864 318.52 131.984 318.192 131.136 317.904C130.304 317.616 129.56 317.368 128.904 317.16V315.024Z" fill="black"/>
<path d="M243.36 415.656C243.568 415.928 243.792 416.264 244.032 416.664C244.272 417.048 244.504 417.44 244.728 417.84C244.952 418.24 245.152 418.608 245.328 418.944L244.032 419.52C243.792 419.04 243.488 418.48 243.12 417.84C242.752 417.2 242.408 416.656 242.088 416.208L243.36 415.656ZM246 414.696C246.208 414.984 246.432 415.328 246.672 415.728C246.928 416.128 247.176 416.528 247.416 416.928C247.656 417.312 247.856 417.656 248.016 417.96L246.72 418.536C246.464 418.008 246.152 417.44 245.784 416.832C245.416 416.208 245.064 415.672 244.728 415.224L246 414.696ZM234.192 424.56C234.976 425.008 235.784 425.504 236.616 426.048C237.464 426.592 238.312 427.16 239.16 427.752C240.008 428.344 240.808 428.92 241.56 429.48C242.328 430.04 243.008 430.56 243.6 431.04L242.184 432.696C241.64 432.2 240.992 431.656 240.24 431.064C239.488 430.456 238.68 429.848 237.816 429.24C236.968 428.616 236.12 428.024 235.272 427.464C234.424 426.888 233.632 426.368 232.896 425.904L234.192 424.56ZM245.184 420.192C245.072 420.352 244.968 420.56 244.872 420.816C244.776 421.056 244.696 421.272 244.632 421.464C244.392 422.28 244.064 423.16 243.648 424.104C243.248 425.048 242.76 426 242.184 426.96C241.624 427.92 240.992 428.832 240.288 429.696C239.2 431.04 237.848 432.32 236.232 433.536C234.632 434.752 232.696 435.784 230.424 436.632L228.696 435.12C230.2 434.672 231.56 434.104 232.776 433.416C233.992 432.728 235.088 431.976 236.064 431.16C237.04 430.344 237.888 429.512 238.608 428.664C239.232 427.912 239.8 427.104 240.312 426.24C240.84 425.36 241.296 424.48 241.68 423.6C242.064 422.72 242.344 421.912 242.52 421.176H233.616L234.408 419.448H242.016C242.336 419.448 242.632 419.432 242.904 419.4C243.176 419.352 243.408 419.296 243.6 419.232L245.184 420.192ZM237.096 416.712C236.888 417.032 236.688 417.376 236.496 417.744C236.304 418.096 236.144 418.384 236.016 418.608C235.536 419.472 234.92 420.432 234.168 421.488C233.416 422.544 232.528 423.592 231.504 424.632C230.48 425.672 229.328 426.632 228.048 427.512L226.44 426.288C227.816 425.424 229.008 424.488 230.016 423.48C231.04 422.456 231.888 421.456 232.56 420.48C233.248 419.504 233.776 418.648 234.144 417.912C234.272 417.704 234.416 417.416 234.576 417.048C234.736 416.68 234.848 416.336 234.912 416.016L237.096 416.712ZM261.984 415.776C261.936 416.144 261.896 416.472 261.864 416.76C261.848 417.048 261.84 417.32 261.84 417.576C261.84 417.768 261.84 418.064 261.84 418.464C261.84 418.864 261.84 419.28 261.84 419.712C261.84 420.144 261.84 420.504 261.84 420.792H259.8C259.8 420.472 259.8 420.096 259.8 419.664C259.8 419.232 259.8 418.824 259.8 418.44C259.8 418.056 259.8 417.768 259.8 417.576C259.8 417.32 259.792 417.048 259.776 416.76C259.776 416.472 259.744 416.144 259.68 415.776H261.984ZM270.168 420.432C270.104 420.608 270.04 420.84 269.976 421.128C269.912 421.4 269.856 421.648 269.808 421.872C269.744 422.352 269.64 422.888 269.496 423.48C269.368 424.072 269.208 424.696 269.016 425.352C268.824 425.992 268.6 426.632 268.344 427.272C268.088 427.896 267.792 428.504 267.456 429.096C266.864 430.136 266.104 431.096 265.176 431.976C264.248 432.856 263.176 433.624 261.96 434.28C260.76 434.936 259.424 435.472 257.952 435.888L256.392 434.088C256.792 434.024 257.208 433.936 257.64 433.824C258.088 433.696 258.504 433.56 258.888 433.416C259.688 433.16 260.496 432.8 261.312 432.336C262.128 431.856 262.888 431.304 263.592 430.68C264.312 430.04 264.912 429.344 265.392 428.592C265.824 427.904 266.192 427.152 266.496 426.336C266.816 425.52 267.072 424.696 267.264 423.864C267.456 423.032 267.592 422.272 267.672 421.584H254.256C254.256 421.84 254.256 422.168 254.256 422.568C254.256 422.968 254.256 423.392 254.256 423.84C254.256 424.272 254.256 424.68 254.256 425.064C254.256 425.432 254.256 425.704 254.256 425.88C254.256 426.104 254.264 426.352 254.28 426.624C254.296 426.896 254.32 427.128 254.352 427.32H252.264C252.296 427.096 252.312 426.84 252.312 426.552C252.328 426.264 252.336 426.008 252.336 425.784C252.336 425.592 252.336 425.304 252.336 424.92C252.336 424.536 252.336 424.128 252.336 423.696C252.336 423.248 252.336 422.832 252.336 422.448C252.336 422.064 252.336 421.768 252.336 421.56C252.336 421.304 252.328 421 252.312 420.648C252.312 420.296 252.296 419.984 252.264 419.712C252.616 419.744 252.968 419.768 253.32 419.784C253.688 419.8 254.08 419.808 254.496 419.808H267.216C267.664 419.808 268.008 419.792 268.248 419.76C268.504 419.712 268.712 419.664 268.872 419.616L270.168 420.432ZM278.448 417.408C278.88 417.696 279.376 418.056 279.936 418.488C280.496 418.904 281.064 419.352 281.64 419.832C282.232 420.296 282.784 420.752 283.296 421.2C283.808 421.648 284.232 422.04 284.568 422.376L283.056 423.888C282.752 423.584 282.36 423.208 281.88 422.76C281.4 422.312 280.872 421.848 280.296 421.368C279.72 420.872 279.152 420.408 278.592 419.976C278.032 419.528 277.528 419.16 277.08 418.872L278.448 417.408ZM276.384 433.488C277.792 433.28 279.072 432.992 280.224 432.624C281.392 432.256 282.456 431.84 283.416 431.376C284.376 430.912 285.232 430.448 285.984 429.984C287.216 429.216 288.352 428.336 289.392 427.344C290.432 426.336 291.344 425.296 292.128 424.224C292.912 423.152 293.536 422.128 294 421.152L295.152 423.192C294.608 424.184 293.936 425.192 293.136 426.216C292.336 427.24 291.432 428.224 290.424 429.168C289.416 430.112 288.304 430.968 287.088 431.736C286.288 432.232 285.408 432.72 284.448 433.2C283.504 433.68 282.464 434.12 281.328 434.52C280.208 434.904 278.984 435.216 277.656 435.456L276.384 433.488ZM300.504 418.56C300.984 418.576 301.392 418.592 301.728 418.608C302.064 418.608 302.368 418.608 302.64 418.608C302.832 418.608 303.184 418.608 303.696 418.608C304.208 418.608 304.824 418.608 305.544 418.608C306.28 418.608 307.064 418.608 307.896 418.608C308.728 418.608 309.552 418.608 310.368 418.608C311.2 418.608 311.976 418.608 312.696 418.608C313.416 418.608 314.024 418.608 314.52 418.608C315.016 418.608 315.352 418.608 315.528 418.608C315.784 418.608 316.104 418.608 316.488 418.608C316.888 418.592 317.272 418.576 317.64 418.56C317.624 418.848 317.608 419.16 317.592 419.496C317.592 419.816 317.592 420.128 317.592 420.432C317.592 420.592 317.592 420.912 317.592 421.392C317.592 421.856 317.592 422.424 317.592 423.096C317.592 423.768 317.592 424.496 317.592 425.28C317.592 426.048 317.592 426.816 317.592 427.584C317.592 428.352 317.592 429.064 317.592 429.72C317.592 430.376 317.592 430.936 317.592 431.4C317.592 431.848 317.592 432.136 317.592 432.264C317.592 432.44 317.592 432.68 317.592 432.984C317.592 433.288 317.592 433.592 317.592 433.896C317.608 434.2 317.616 434.472 317.616 434.712C317.632 434.936 317.64 435.088 317.64 435.168H315.576C315.576 435.072 315.576 434.88 315.576 434.592C315.592 434.288 315.6 433.952 315.6 433.584C315.616 433.2 315.624 432.84 315.624 432.504C315.624 432.392 315.624 432.088 315.624 431.592C315.624 431.096 315.624 430.488 315.624 429.768C315.624 429.032 315.624 428.248 315.624 427.416C315.624 426.568 315.624 425.744 315.624 424.944C315.624 424.128 315.624 423.384 315.624 422.712C315.624 422.04 315.624 421.504 315.624 421.104C315.624 420.704 315.624 420.504 315.624 420.504H302.496C302.496 420.504 302.496 420.704 302.496 421.104C302.496 421.488 302.496 422.016 302.496 422.688C302.496 423.36 302.496 424.104 302.496 424.92C302.496 425.72 302.496 426.536 302.496 427.368C302.496 428.2 302.496 428.984 302.496 429.72C302.496 430.44 302.496 431.048 302.496 431.544C302.496 432.04 302.496 432.36 302.496 432.504C302.496 432.712 302.496 432.952 302.496 433.224C302.496 433.496 302.496 433.768 302.496 434.04C302.512 434.296 302.52 434.528 302.52 434.736C302.536 434.944 302.544 435.088 302.544 435.168H300.48C300.48 435.088 300.48 434.936 300.48 434.712C300.496 434.472 300.504 434.2 300.504 433.896C300.52 433.592 300.528 433.296 300.528 433.008C300.528 432.704 300.528 432.448 300.528 432.24C300.528 432.112 300.528 431.816 300.528 431.352C300.528 430.888 300.528 430.32 300.528 429.648C300.528 428.976 300.528 428.256 300.528 427.488C300.528 426.704 300.528 425.928 300.528 425.16C300.528 424.376 300.528 423.656 300.528 423C300.528 422.328 300.528 421.768 300.528 421.32C300.528 420.856 300.528 420.56 300.528 420.432C300.528 420.144 300.528 419.832 300.528 419.496C300.528 419.16 300.52 418.848 300.504 418.56ZM316.392 431.904V433.776H301.56V431.904H316.392ZM323.448 424.608C323.688 424.624 323.984 424.648 324.336 424.68C324.688 424.696 325.072 424.712 325.488 424.728C325.92 424.728 326.352 424.728 326.784 424.728C327.04 424.728 327.432 424.728 327.96 424.728C328.504 424.728 329.136 424.728 329.856 424.728C330.576 424.728 331.336 424.728 332.136 424.728C332.952 424.728 333.76 424.728 334.56 424.728C335.376 424.728 336.144 424.728 336.864 424.728C337.6 424.728 338.232 424.728 338.76 424.728C339.288 424.728 339.68 424.728 339.936 424.728C340.544 424.728 341.064 424.712 341.496 424.68C341.928 424.648 342.272 424.624 342.528 424.608V426.96C342.288 426.944 341.928 426.92 341.448 426.888C340.984 426.856 340.488 426.84 339.96 426.84C339.704 426.84 339.304 426.84 338.76 426.84C338.216 426.84 337.584 426.84 336.864 426.84C336.16 426.84 335.4 426.84 334.584 426.84C333.768 426.84 332.952 426.84 332.136 426.84C331.336 426.84 330.576 426.84 329.856 426.84C329.152 426.84 328.528 426.84 327.984 426.84C327.44 426.84 327.04 426.84 326.784 426.84C326.128 426.84 325.504 426.856 324.912 426.888C324.32 426.904 323.832 426.928 323.448 426.96V424.608ZM360.744 417.72C360.952 418.008 361.192 418.368 361.464 418.8C361.736 419.216 362 419.648 362.256 420.096C362.528 420.544 362.752 420.96 362.928 421.344L361.56 421.968C361.368 421.552 361.152 421.136 360.912 420.72C360.688 420.288 360.448 419.872 360.192 419.472C359.952 419.056 359.696 418.672 359.424 418.32L360.744 417.72ZM363.648 416.52C363.856 416.792 364.096 417.136 364.368 417.552C364.656 417.968 364.936 418.4 365.208 418.848C365.48 419.296 365.712 419.704 365.904 420.072L364.56 420.744C364.352 420.328 364.128 419.912 363.888 419.496C363.648 419.08 363.392 418.672 363.12 418.272C362.864 417.872 362.6 417.496 362.328 417.144L363.648 416.52ZM352.32 433.2C352.32 432.976 352.32 432.528 352.32 431.856C352.32 431.184 352.32 430.384 352.32 429.456C352.32 428.512 352.32 427.52 352.32 426.48C352.32 425.44 352.32 424.432 352.32 423.456C352.32 422.48 352.32 421.616 352.32 420.864C352.32 420.112 352.32 419.568 352.32 419.232C352.32 418.896 352.304 418.488 352.272 418.008C352.256 417.528 352.208 417.104 352.128 416.736H354.504C354.456 417.104 354.416 417.528 354.384 418.008C354.352 418.472 354.336 418.88 354.336 419.232C354.336 419.856 354.336 420.608 354.336 421.488C354.336 422.352 354.336 423.28 354.336 424.272C354.336 425.248 354.336 426.224 354.336 427.2C354.336 428.16 354.336 429.064 354.336 429.912C354.336 430.744 354.336 431.456 354.336 432.048C354.336 432.624 354.336 433.008 354.336 433.2C354.336 433.44 354.336 433.736 354.336 434.088C354.352 434.44 354.376 434.784 354.408 435.12C354.44 435.472 354.464 435.776 354.48 436.032H352.176C352.224 435.648 352.256 435.192 352.272 434.664C352.304 434.136 352.32 433.648 352.32 433.2ZM353.904 423.024C354.688 423.264 355.56 423.552 356.52 423.888C357.48 424.208 358.448 424.552 359.424 424.92C360.416 425.288 361.352 425.664 362.232 426.048C363.128 426.416 363.912 426.768 364.584 427.104L363.744 429.144C363.056 428.776 362.28 428.4 361.416 428.016C360.568 427.632 359.688 427.256 358.776 426.888C357.864 426.52 356.984 426.192 356.136 425.904C355.304 425.616 354.56 425.368 353.904 425.16V423.024Z" fill="black"/>
<path d="M558.344 447.776C558.248 447.888 558.136 448.024 558.008 448.184C557.896 448.344 557.792 448.496 557.696 448.64C557.392 449.184 556.936 449.856 556.328 450.656C555.736 451.44 555.048 452.248 554.264 453.08C553.48 453.896 552.632 454.624 551.72 455.264L550.136 453.992C550.696 453.672 551.24 453.288 551.768 452.84C552.312 452.376 552.816 451.896 553.28 451.4C553.76 450.888 554.176 450.392 554.528 449.912C554.896 449.416 555.184 448.984 555.392 448.616C555.136 448.616 554.72 448.616 554.144 448.616C553.584 448.616 552.912 448.616 552.128 448.616C551.36 448.616 550.536 448.616 549.656 448.616C548.776 448.616 547.904 448.616 547.04 448.616C546.176 448.616 545.368 448.616 544.616 448.616C543.864 448.616 543.232 448.616 542.72 448.616C542.208 448.616 541.872 448.616 541.712 448.616C541.264 448.616 540.816 448.632 540.368 448.664C539.92 448.68 539.456 448.712 538.976 448.76V446.576C539.392 446.64 539.84 446.696 540.32 446.744C540.8 446.776 541.264 446.792 541.712 446.792C541.872 446.792 542.216 446.792 542.744 446.792C543.272 446.792 543.912 446.792 544.664 446.792C545.432 446.792 546.264 446.792 547.16 446.792C548.056 446.792 548.944 446.792 549.824 446.792C550.72 446.792 551.56 446.792 552.344 446.792C553.128 446.792 553.792 446.792 554.336 446.792C554.896 446.792 555.28 446.792 555.488 446.792C555.648 446.792 555.832 446.792 556.04 446.792C556.264 446.776 556.48 446.752 556.688 446.72C556.896 446.688 557.056 446.664 557.168 446.648L558.344 447.776ZM548.768 450.944C548.768 452.24 548.728 453.456 548.648 454.592C548.568 455.728 548.408 456.792 548.168 457.784C547.928 458.776 547.56 459.696 547.064 460.544C546.584 461.376 545.936 462.16 545.12 462.896C544.304 463.616 543.288 464.28 542.072 464.888L540.296 463.448C540.632 463.336 540.992 463.192 541.376 463.016C541.76 462.824 542.12 462.608 542.456 462.368C543.4 461.808 544.152 461.176 544.712 460.472C545.272 459.768 545.688 459.008 545.96 458.192C546.248 457.36 546.44 456.488 546.536 455.576C546.648 454.648 546.704 453.688 546.704 452.696C546.704 452.392 546.696 452.104 546.68 451.832C546.68 451.56 546.656 451.264 546.608 450.944H548.768ZM571.592 450.176C571.704 450.416 571.848 450.776 572.024 451.256C572.2 451.72 572.384 452.216 572.576 452.744C572.784 453.272 572.968 453.776 573.128 454.256C573.288 454.72 573.408 455.088 573.488 455.36L571.712 455.984C571.648 455.712 571.536 455.344 571.376 454.88C571.232 454.416 571.064 453.92 570.872 453.392C570.68 452.848 570.488 452.344 570.296 451.88C570.104 451.416 569.952 451.048 569.84 450.776L571.592 450.176ZM580.28 451.52C580.2 451.76 580.128 451.984 580.064 452.192C580.016 452.384 579.968 452.56 579.92 452.72C579.6 454.032 579.168 455.32 578.624 456.584C578.08 457.832 577.376 459 576.512 460.088C575.408 461.496 574.16 462.672 572.768 463.616C571.392 464.56 570.032 465.288 568.688 465.8L567.104 464.192C568.032 463.904 568.968 463.52 569.912 463.04C570.872 462.56 571.776 461.984 572.624 461.312C573.488 460.64 574.248 459.896 574.904 459.08C575.48 458.376 575.992 457.584 576.44 456.704C576.904 455.824 577.288 454.888 577.592 453.896C577.896 452.904 578.104 451.896 578.216 450.872L580.28 451.52ZM566.024 451.376C566.152 451.648 566.312 452.016 566.504 452.48C566.696 452.944 566.896 453.456 567.104 454.016C567.328 454.56 567.536 455.088 567.728 455.6C567.936 456.096 568.096 456.496 568.208 456.8L566.384 457.472C566.288 457.168 566.144 456.76 565.952 456.248C565.776 455.72 565.576 455.176 565.352 454.616C565.128 454.056 564.912 453.544 564.704 453.08C564.512 452.616 564.36 452.28 564.248 452.072L566.024 451.376ZM603.32 446.768C603.32 447.2 603.472 447.576 603.776 447.896C604.096 448.2 604.472 448.352 604.904 448.352C605.352 448.352 605.728 448.2 606.032 447.896C606.352 447.576 606.512 447.2 606.512 446.768C606.512 446.32 606.352 445.944 606.032 445.64C605.728 445.32 605.352 445.16 604.904 445.16C604.472 445.16 604.096 445.32 603.776 445.64C603.472 445.944 603.32 446.32 603.32 446.768ZM602.216 446.768C602.216 446.272 602.336 445.824 602.576 445.424C602.832 445.008 603.16 444.68 603.56 444.44C603.96 444.184 604.408 444.056 604.904 444.056C605.4 444.056 605.848 444.184 606.248 444.44C606.664 444.68 606.992 445.008 607.232 445.424C607.488 445.824 607.616 446.272 607.616 446.768C607.616 447.264 607.488 447.712 607.232 448.112C606.992 448.512 606.664 448.84 606.248 449.096C605.848 449.336 605.4 449.456 604.904 449.456C604.408 449.456 603.96 449.336 603.56 449.096C603.16 448.84 602.832 448.512 602.576 448.112C602.336 447.712 602.216 447.264 602.216 446.768ZM604.304 448.376C604.224 448.536 604.152 448.72 604.088 448.928C604.04 449.12 603.992 449.336 603.944 449.576C603.816 450.2 603.648 450.896 603.44 451.664C603.232 452.432 602.976 453.224 602.672 454.04C602.384 454.84 602.048 455.616 601.664 456.368C601.28 457.12 600.848 457.808 600.368 458.432C599.632 459.36 598.816 460.224 597.92 461.024C597.024 461.824 596 462.544 594.848 463.184C593.696 463.824 592.384 464.376 590.912 464.84L589.28 463.04C590.848 462.656 592.2 462.176 593.336 461.6C594.488 461.024 595.496 460.376 596.36 459.656C597.224 458.92 597.984 458.128 598.64 457.28C599.216 456.544 599.712 455.72 600.128 454.808C600.56 453.88 600.92 452.952 601.208 452.024C601.496 451.08 601.688 450.224 601.784 449.456C601.56 449.456 601.136 449.456 600.512 449.456C599.888 449.456 599.152 449.456 598.304 449.456C597.456 449.456 596.568 449.456 595.64 449.456C594.728 449.456 593.848 449.456 593 449.456C592.152 449.456 591.416 449.456 590.792 449.456C590.168 449.456 589.744 449.456 589.52 449.456C589.04 449.456 588.6 449.464 588.2 449.48C587.8 449.496 587.44 449.512 587.12 449.528V447.392C587.344 447.424 587.592 447.456 587.864 447.488C588.136 447.504 588.416 447.52 588.704 447.536C588.992 447.552 589.264 447.56 589.52 447.56C589.712 447.56 590.056 447.56 590.552 447.56C591.048 447.56 591.632 447.56 592.304 447.56C592.992 447.56 593.72 447.56 594.488 447.56C595.272 447.56 596.04 447.56 596.792 447.56C597.56 447.56 598.272 447.56 598.928 447.56C599.6 447.56 600.168 447.56 600.632 447.56C601.096 447.56 601.408 447.56 601.568 447.56C601.744 447.56 601.944 447.552 602.168 447.536C602.392 447.52 602.616 447.488 602.84 447.44L604.304 448.376ZM611.504 447.56C611.984 447.576 612.392 447.592 612.728 447.608C613.064 447.608 613.368 447.608 613.64 447.608C613.832 447.608 614.184 447.608 614.696 447.608C615.208 447.608 615.824 447.608 616.544 447.608C617.28 447.608 618.064 447.608 618.896 447.608C619.728 447.608 620.552 447.608 621.368 447.608C622.2 447.608 622.976 447.608 623.696 447.608C624.416 447.608 625.024 447.608 625.52 447.608C626.016 447.608 626.352 447.608 626.528 447.608C626.784 447.608 627.104 447.608 627.488 447.608C627.888 447.592 628.272 447.576 628.64 447.56C628.624 447.848 628.608 448.16 628.592 448.496C628.592 448.816 628.592 449.128 628.592 449.432C628.592 449.592 628.592 449.912 628.592 450.392C628.592 450.856 628.592 451.424 628.592 452.096C628.592 452.768 628.592 453.496 628.592 454.28C628.592 455.048 628.592 455.816 628.592 456.584C628.592 457.352 628.592 458.064 628.592 458.72C628.592 459.376 628.592 459.936 628.592 460.4C628.592 460.848 628.592 461.136 628.592 461.264C628.592 461.44 628.592 461.68 628.592 461.984C628.592 462.288 628.592 462.592 628.592 462.896C628.608 463.2 628.616 463.472 628.616 463.712C628.632 463.936 628.64 464.088 628.64 464.168H626.576C626.576 464.072 626.576 463.88 626.576 463.592C626.592 463.288 626.6 462.952 626.6 462.584C626.616 462.2 626.624 461.84 626.624 461.504C626.624 461.392 626.624 461.088 626.624 460.592C626.624 460.096 626.624 459.488 626.624 458.768C626.624 458.032 626.624 457.248 626.624 456.416C626.624 455.568 626.624 454.744 626.624 453.944C626.624 453.128 626.624 452.384 626.624 451.712C626.624 451.04 626.624 450.504 626.624 450.104C626.624 449.704 626.624 449.504 626.624 449.504H613.496C613.496 449.504 613.496 449.704 613.496 450.104C613.496 450.488 613.496 451.016 613.496 451.688C613.496 452.36 613.496 453.104 613.496 453.92C613.496 454.72 613.496 455.536 613.496 456.368C613.496 457.2 613.496 457.984 613.496 458.72C613.496 459.44 613.496 460.048 613.496 460.544C613.496 461.04 613.496 461.36 613.496 461.504C613.496 461.712 613.496 461.952 613.496 462.224C613.496 462.496 613.496 462.768 613.496 463.04C613.512 463.296 613.52 463.528 613.52 463.736C613.536 463.944 613.544 464.088 613.544 464.168H611.48C611.48 464.088 611.48 463.936 611.48 463.712C611.496 463.472 611.504 463.2 611.504 462.896C611.52 462.592 611.528 462.296 611.528 462.008C611.528 461.704 611.528 461.448 611.528 461.24C611.528 461.112 611.528 460.816 611.528 460.352C611.528 459.888 611.528 459.32 611.528 458.648C611.528 457.976 611.528 457.256 611.528 456.488C611.528 455.704 611.528 454.928 611.528 454.16C611.528 453.376 611.528 452.656 611.528 452C611.528 451.328 611.528 450.768 611.528 450.32C611.528 449.856 611.528 449.56 611.528 449.432C611.528 449.144 611.528 448.832 611.528 448.496C611.528 448.16 611.52 447.848 611.504 447.56ZM627.392 460.904V462.776H612.56V460.904H627.392ZM634.448 453.608C634.688 453.624 634.984 453.648 635.336 453.68C635.688 453.696 636.072 453.712 636.488 453.728C636.92 453.728 637.352 453.728 637.784 453.728C638.04 453.728 638.432 453.728 638.96 453.728C639.504 453.728 640.136 453.728 640.856 453.728C641.576 453.728 642.336 453.728 643.136 453.728C643.952 453.728 644.76 453.728 645.56 453.728C646.376 453.728 647.144 453.728 647.864 453.728C648.6 453.728 649.232 453.728 649.76 453.728C650.288 453.728 650.68 453.728 650.936 453.728C651.544 453.728 652.064 453.712 652.496 453.68C652.928 453.648 653.272 453.624 653.528 453.608V455.96C653.288 455.944 652.928 455.92 652.448 455.888C651.984 455.856 651.488 455.84 650.96 455.84C650.704 455.84 650.304 455.84 649.76 455.84C649.216 455.84 648.584 455.84 647.864 455.84C647.16 455.84 646.4 455.84 645.584 455.84C644.768 455.84 643.952 455.84 643.136 455.84C642.336 455.84 641.576 455.84 640.856 455.84C640.152 455.84 639.528 455.84 638.984 455.84C638.44 455.84 638.04 455.84 637.784 455.84C637.128 455.84 636.504 455.856 635.912 455.888C635.32 455.904 634.832 455.928 634.448 455.96V453.608ZM671.744 446.72C671.952 447.008 672.192 447.368 672.464 447.8C672.736 448.216 673 448.648 673.256 449.096C673.528 449.544 673.752 449.96 673.928 450.344L672.56 450.968C672.368 450.552 672.152 450.136 671.912 449.72C671.688 449.288 671.448 448.872 671.192 448.472C670.952 448.056 670.696 447.672 670.424 447.32L671.744 446.72ZM674.648 445.52C674.856 445.792 675.096 446.136 675.368 446.552C675.656 446.968 675.936 447.4 676.208 447.848C676.48 448.296 676.712 448.704 676.904 449.072L675.56 449.744C675.352 449.328 675.128 448.912 674.888 448.496C674.648 448.08 674.392 447.672 674.12 447.272C673.864 446.872 673.6 446.496 673.328 446.144L674.648 445.52ZM663.32 462.2C663.32 461.976 663.32 461.528 663.32 460.856C663.32 460.184 663.32 459.384 663.32 458.456C663.32 457.512 663.32 456.52 663.32 455.48C663.32 454.44 663.32 453.432 663.32 452.456C663.32 451.48 663.32 450.616 663.32 449.864C663.32 449.112 663.32 448.568 663.32 448.232C663.32 447.896 663.304 447.488 663.272 447.008C663.256 446.528 663.208 446.104 663.128 445.736H665.504C665.456 446.104 665.416 446.528 665.384 447.008C665.352 447.472 665.336 447.88 665.336 448.232C665.336 448.856 665.336 449.608 665.336 450.488C665.336 451.352 665.336 452.28 665.336 453.272C665.336 454.248 665.336 455.224 665.336 456.2C665.336 457.16 665.336 458.064 665.336 458.912C665.336 459.744 665.336 460.456 665.336 461.048C665.336 461.624 665.336 462.008 665.336 462.2C665.336 462.44 665.336 462.736 665.336 463.088C665.352 463.44 665.376 463.784 665.408 464.12C665.44 464.472 665.464 464.776 665.48 465.032H663.176C663.224 464.648 663.256 464.192 663.272 463.664C663.304 463.136 663.32 462.648 663.32 462.2ZM664.904 452.024C665.688 452.264 666.56 452.552 667.52 452.888C668.48 453.208 669.448 453.552 670.424 453.92C671.416 454.288 672.352 454.664 673.232 455.048C674.128 455.416 674.912 455.768 675.584 456.104L674.744 458.144C674.056 457.776 673.28 457.4 672.416 457.016C671.568 456.632 670.688 456.256 669.776 455.888C668.864 455.52 667.984 455.192 667.136 454.904C666.304 454.616 665.56 454.368 664.904 454.16V452.024Z" fill="black"/>
<path d="M744.36 301.656C744.568 301.928 744.792 302.264 745.032 302.664C745.272 303.048 745.504 303.44 745.728 303.84C745.952 304.24 746.152 304.608 746.328 304.944L745.032 305.52C744.792 305.04 744.488 304.48 744.12 303.84C743.752 303.2 743.408 302.656 743.088 302.208L744.36 301.656ZM747 300.696C747.208 300.984 747.432 301.328 747.672 301.728C747.928 302.128 748.176 302.528 748.416 302.928C748.656 303.312 748.856 303.656 749.016 303.96L747.72 304.536C747.464 304.008 747.152 303.44 746.784 302.832C746.416 302.208 746.064 301.672 745.728 301.224L747 300.696ZM735.192 310.56C735.976 311.008 736.784 311.504 737.616 312.048C738.464 312.592 739.312 313.16 740.16 313.752C741.008 314.344 741.808 314.92 742.56 315.48C743.328 316.04 744.008 316.56 744.6 317.04L743.184 318.696C742.64 318.2 741.992 317.656 741.24 317.064C740.488 316.456 739.68 315.848 738.816 315.24C737.968 314.616 737.12 314.024 736.272 313.464C735.424 312.888 734.632 312.368 733.896 311.904L735.192 310.56ZM746.184 306.192C746.072 306.352 745.968 306.56 745.872 306.816C745.776 307.056 745.696 307.272 745.632 307.464C745.392 308.28 745.064 309.16 744.648 310.104C744.248 311.048 743.76 312 743.184 312.96C742.624 313.92 741.992 314.832 741.288 315.696C740.2 317.04 738.848 318.32 737.232 319.536C735.632 320.752 733.696 321.784 731.424 322.632L729.696 321.12C731.2 320.672 732.56 320.104 733.776 319.416C734.992 318.728 736.088 317.976 737.064 317.16C738.04 316.344 738.888 315.512 739.608 314.664C740.232 313.912 740.8 313.104 741.312 312.24C741.84 311.36 742.296 310.48 742.68 309.6C743.064 308.72 743.344 307.912 743.52 307.176H734.616L735.408 305.448H743.016C743.336 305.448 743.632 305.432 743.904 305.4C744.176 305.352 744.408 305.296 744.6 305.232L746.184 306.192ZM738.096 302.712C737.888 303.032 737.688 303.376 737.496 303.744C737.304 304.096 737.144 304.384 737.016 304.608C736.536 305.472 735.92 306.432 735.168 307.488C734.416 308.544 733.528 309.592 732.504 310.632C731.48 311.672 730.328 312.632 729.048 313.512L727.44 312.288C728.816 311.424 730.008 310.488 731.016 309.48C732.04 308.456 732.888 307.456 733.56 306.48C734.248 305.504 734.776 304.648 735.144 303.912C735.272 303.704 735.416 303.416 735.576 303.048C735.736 302.68 735.848 302.336 735.912 302.016L738.096 302.712ZM762.984 301.776C762.936 302.144 762.896 302.472 762.864 302.76C762.848 303.048 762.84 303.32 762.84 303.576C762.84 303.768 762.84 304.064 762.84 304.464C762.84 304.864 762.84 305.28 762.84 305.712C762.84 306.144 762.84 306.504 762.84 306.792H760.8C760.8 306.472 760.8 306.096 760.8 305.664C760.8 305.232 760.8 304.824 760.8 304.44C760.8 304.056 760.8 303.768 760.8 303.576C760.8 303.32 760.792 303.048 760.776 302.76C760.776 302.472 760.744 302.144 760.68 301.776H762.984ZM771.168 306.432C771.104 306.608 771.04 306.84 770.976 307.128C770.912 307.4 770.856 307.648 770.808 307.872C770.744 308.352 770.64 308.888 770.496 309.48C770.368 310.072 770.208 310.696 770.016 311.352C769.824 311.992 769.6 312.632 769.344 313.272C769.088 313.896 768.792 314.504 768.456 315.096C767.864 316.136 767.104 317.096 766.176 317.976C765.248 318.856 764.176 319.624 762.96 320.28C761.76 320.936 760.424 321.472 758.952 321.888L757.392 320.088C757.792 320.024 758.208 319.936 758.64 319.824C759.088 319.696 759.504 319.56 759.888 319.416C760.688 319.16 761.496 318.8 762.312 318.336C763.128 317.856 763.888 317.304 764.592 316.68C765.312 316.04 765.912 315.344 766.392 314.592C766.824 313.904 767.192 313.152 767.496 312.336C767.816 311.52 768.072 310.696 768.264 309.864C768.456 309.032 768.592 308.272 768.672 307.584H755.256C755.256 307.84 755.256 308.168 755.256 308.568C755.256 308.968 755.256 309.392 755.256 309.84C755.256 310.272 755.256 310.68 755.256 311.064C755.256 311.432 755.256 311.704 755.256 311.88C755.256 312.104 755.264 312.352 755.28 312.624C755.296 312.896 755.32 313.128 755.352 313.32H753.264C753.296 313.096 753.312 312.84 753.312 312.552C753.328 312.264 753.336 312.008 753.336 311.784C753.336 311.592 753.336 311.304 753.336 310.92C753.336 310.536 753.336 310.128 753.336 309.696C753.336 309.248 753.336 308.832 753.336 308.448C753.336 308.064 753.336 307.768 753.336 307.56C753.336 307.304 753.328 307 753.312 306.648C753.312 306.296 753.296 305.984 753.264 305.712C753.616 305.744 753.968 305.768 754.32 305.784C754.688 305.8 755.08 305.808 755.496 305.808H768.216C768.664 305.808 769.008 305.792 769.248 305.76C769.504 305.712 769.712 305.664 769.872 305.616L771.168 306.432ZM779.448 303.408C779.88 303.696 780.376 304.056 780.936 304.488C781.496 304.904 782.064 305.352 782.64 305.832C783.232 306.296 783.784 306.752 784.296 307.2C784.808 307.648 785.232 308.04 785.568 308.376L784.056 309.888C783.752 309.584 783.36 309.208 782.88 308.76C782.4 308.312 781.872 307.848 781.296 307.368C780.72 306.872 780.152 306.408 779.592 305.976C779.032 305.528 778.528 305.16 778.08 304.872L779.448 303.408ZM777.384 319.488C778.792 319.28 780.072 318.992 781.224 318.624C782.392 318.256 783.456 317.84 784.416 317.376C785.376 316.912 786.232 316.448 786.984 315.984C788.216 315.216 789.352 314.336 790.392 313.344C791.432 312.336 792.344 311.296 793.128 310.224C793.912 309.152 794.536 308.128 795 307.152L796.152 309.192C795.608 310.184 794.936 311.192 794.136 312.216C793.336 313.24 792.432 314.224 791.424 315.168C790.416 316.112 789.304 316.968 788.088 317.736C787.288 318.232 786.408 318.72 785.448 319.2C784.504 319.68 783.464 320.12 782.328 320.52C781.208 320.904 779.984 321.216 778.656 321.456L777.384 319.488ZM801.504 304.56C801.984 304.576 802.392 304.592 802.728 304.608C803.064 304.608 803.368 304.608 803.64 304.608C803.832 304.608 804.184 304.608 804.696 304.608C805.208 304.608 805.824 304.608 806.544 304.608C807.28 304.608 808.064 304.608 808.896 304.608C809.728 304.608 810.552 304.608 811.368 304.608C812.2 304.608 812.976 304.608 813.696 304.608C814.416 304.608 815.024 304.608 815.52 304.608C816.016 304.608 816.352 304.608 816.528 304.608C816.784 304.608 817.104 304.608 817.488 304.608C817.888 304.592 818.272 304.576 818.64 304.56C818.624 304.848 818.608 305.16 818.592 305.496C818.592 305.816 818.592 306.128 818.592 306.432C818.592 306.592 818.592 306.912 818.592 307.392C818.592 307.856 818.592 308.424 818.592 309.096C818.592 309.768 818.592 310.496 818.592 311.28C818.592 312.048 818.592 312.816 818.592 313.584C818.592 314.352 818.592 315.064 818.592 315.72C818.592 316.376 818.592 316.936 818.592 317.4C818.592 317.848 818.592 318.136 818.592 318.264C818.592 318.44 818.592 318.68 818.592 318.984C818.592 319.288 818.592 319.592 818.592 319.896C818.608 320.2 818.616 320.472 818.616 320.712C818.632 320.936 818.64 321.088 818.64 321.168H816.576C816.576 321.072 816.576 320.88 816.576 320.592C816.592 320.288 816.6 319.952 816.6 319.584C816.616 319.2 816.624 318.84 816.624 318.504C816.624 318.392 816.624 318.088 816.624 317.592C816.624 317.096 816.624 316.488 816.624 315.768C816.624 315.032 816.624 314.248 816.624 313.416C816.624 312.568 816.624 311.744 816.624 310.944C816.624 310.128 816.624 309.384 816.624 308.712C816.624 308.04 816.624 307.504 816.624 307.104C816.624 306.704 816.624 306.504 816.624 306.504H803.496C803.496 306.504 803.496 306.704 803.496 307.104C803.496 307.488 803.496 308.016 803.496 308.688C803.496 309.36 803.496 310.104 803.496 310.92C803.496 311.72 803.496 312.536 803.496 313.368C803.496 314.2 803.496 314.984 803.496 315.72C803.496 316.44 803.496 317.048 803.496 317.544C803.496 318.04 803.496 318.36 803.496 318.504C803.496 318.712 803.496 318.952 803.496 319.224C803.496 319.496 803.496 319.768 803.496 320.04C803.512 320.296 803.52 320.528 803.52 320.736C803.536 320.944 803.544 321.088 803.544 321.168H801.48C801.48 321.088 801.48 320.936 801.48 320.712C801.496 320.472 801.504 320.2 801.504 319.896C801.52 319.592 801.528 319.296 801.528 319.008C801.528 318.704 801.528 318.448 801.528 318.24C801.528 318.112 801.528 317.816 801.528 317.352C801.528 316.888 801.528 316.32 801.528 315.648C801.528 314.976 801.528 314.256 801.528 313.488C801.528 312.704 801.528 311.928 801.528 311.16C801.528 310.376 801.528 309.656 801.528 309C801.528 308.328 801.528 307.768 801.528 307.32C801.528 306.856 801.528 306.56 801.528 306.432C801.528 306.144 801.528 305.832 801.528 305.496C801.528 305.16 801.52 304.848 801.504 304.56ZM817.392 317.904V319.776H802.56V317.904H817.392ZM824.448 310.608C824.688 310.624 824.984 310.648 825.336 310.68C825.688 310.696 826.072 310.712 826.488 310.728C826.92 310.728 827.352 310.728 827.784 310.728C828.04 310.728 828.432 310.728 828.96 310.728C829.504 310.728 830.136 310.728 830.856 310.728C831.576 310.728 832.336 310.728 833.136 310.728C833.952 310.728 834.76 310.728 835.56 310.728C836.376 310.728 837.144 310.728 837.864 310.728C838.6 310.728 839.232 310.728 839.76 310.728C840.288 310.728 840.68 310.728 840.936 310.728C841.544 310.728 842.064 310.712 842.496 310.68C842.928 310.648 843.272 310.624 843.528 310.608V312.96C843.288 312.944 842.928 312.92 842.448 312.888C841.984 312.856 841.488 312.84 840.96 312.84C840.704 312.84 840.304 312.84 839.76 312.84C839.216 312.84 838.584 312.84 837.864 312.84C837.16 312.84 836.4 312.84 835.584 312.84C834.768 312.84 833.952 312.84 833.136 312.84C832.336 312.84 831.576 312.84 830.856 312.84C830.152 312.84 829.528 312.84 828.984 312.84C828.44 312.84 828.04 312.84 827.784 312.84C827.128 312.84 826.504 312.856 825.912 312.888C825.32 312.904 824.832 312.928 824.448 312.96V310.608ZM861.744 303.72C861.952 304.008 862.192 304.368 862.464 304.8C862.736 305.216 863 305.648 863.256 306.096C863.528 306.544 863.752 306.96 863.928 307.344L862.56 307.968C862.368 307.552 862.152 307.136 861.912 306.72C861.688 306.288 861.448 305.872 861.192 305.472C860.952 305.056 860.696 304.672 860.424 304.32L861.744 303.72ZM864.648 302.52C864.856 302.792 865.096 303.136 865.368 303.552C865.656 303.968 865.936 304.4 866.208 304.848C866.48 305.296 866.712 305.704 866.904 306.072L865.56 306.744C865.352 306.328 865.128 305.912 864.888 305.496C864.648 305.08 864.392 304.672 864.12 304.272C863.864 303.872 863.6 303.496 863.328 303.144L864.648 302.52ZM853.32 319.2C853.32 318.976 853.32 318.528 853.32 317.856C853.32 317.184 853.32 316.384 853.32 315.456C853.32 314.512 853.32 313.52 853.32 312.48C853.32 311.44 853.32 310.432 853.32 309.456C853.32 308.48 853.32 307.616 853.32 306.864C853.32 306.112 853.32 305.568 853.32 305.232C853.32 304.896 853.304 304.488 853.272 304.008C853.256 303.528 853.208 303.104 853.128 302.736H855.504C855.456 303.104 855.416 303.528 855.384 304.008C855.352 304.472 855.336 304.88 855.336 305.232C855.336 305.856 855.336 306.608 855.336 307.488C855.336 308.352 855.336 309.28 855.336 310.272C855.336 311.248 855.336 312.224 855.336 313.2C855.336 314.16 855.336 315.064 855.336 315.912C855.336 316.744 855.336 317.456 855.336 318.048C855.336 318.624 855.336 319.008 855.336 319.2C855.336 319.44 855.336 319.736 855.336 320.088C855.352 320.44 855.376 320.784 855.408 321.12C855.44 321.472 855.464 321.776 855.48 322.032H853.176C853.224 321.648 853.256 321.192 853.272 320.664C853.304 320.136 853.32 319.648 853.32 319.2ZM854.904 309.024C855.688 309.264 856.56 309.552 857.52 309.888C858.48 310.208 859.448 310.552 860.424 310.92C861.416 311.288 862.352 311.664 863.232 312.048C864.128 312.416 864.912 312.768 865.584 313.104L864.744 315.144C864.056 314.776 863.28 314.4 862.416 314.016C861.568 313.632 860.688 313.256 859.776 312.888C858.864 312.52 857.984 312.192 857.136 311.904C856.304 311.616 855.56 311.368 854.904 311.16V309.024Z" fill="black"/>
<defs>
<clipPath id="clip0_1_39">
<rect width="269" height="269" fill="white" transform="translate(305)"/>
</clipPath>
</defs>
</svg>
